<?xml version="1.0" encoding="iso-8859-1"?>
<!-- Generator: Adobe Illustrator 18.0.0, SVG Export Plug-In . SVG Version: 6.00 Build 0)  -->
<!DOCTYPE svg PUBLIC "-//W3C//DTD SVG 1.1//EN" "http://www.w3.org/Graphics/SVG/1.1/DTD/svg11.dtd">
<svg version="1.1" id="Capa_1" xmlns="http://www.w3.org/2000/svg" xmlns:xlink="http://www.w3.org/1999/xlink" x="0px" y="0px"
	 viewBox="0 0 411.576 411.576" style="enable-background:new 0 0 411.576 411.576;" xml:space="preserve">
<g>
	<path d="M406.679,27.348c-2.403-2.741-5.485-4.738-8.886-5.826c-1.088-3.4-3.085-6.482-5.826-8.886
		c-4.271-3.744-9.938-5.473-15.555-4.729c-6.85,0.902-13.057,3.967-17.949,8.86c-5.914,5.914-8.909,13.645-8.434,21.767
		c0.022,0.378,0.057,0.756,0.094,1.133c-1.839-0.454-3.664-0.69-5.477-0.69c-6.064,0-11.644,2.504-16.583,7.443
		c-10.647,10.657-24.581,17.123-39.234,18.206c-14.676,1.086-28.495,7.423-38.912,17.841c-3.541,3.54-6.508,7.351-8.86,11.37H227.26
		c0.322-1.762,0.506-3.567,0.506-5.41c0-6.914-2.222-13.467-6.428-18.954c-3.45-4.492-8.681-7.28-14.349-7.65
		c-3.642-0.234-7.224,0.53-10.396,2.163c-3.18-1.637-6.782-2.404-10.418-2.162c-5.664,0.375-10.885,3.166-14.318,7.646
		c-4.214,5.479-6.441,12.035-6.441,18.957c0,1.843,0.184,3.648,0.506,5.41h-12.865c-11.982-22.618-35.614-37-61.441-37
		c-25.828,0-49.461,14.382-61.441,37H16.5c-9.098,0-16.5,7.402-16.5,16.5s7.402,16.5,16.5,16.5h1.94l18.406,270.476
		c0.249,3.673,3.302,6.524,6.983,6.524h312.554c3.682,0,6.733-2.852,6.983-6.524l18.406-270.476h1.943c9.098,0,16.5-7.402,16.5-16.5
		s-7.402-16.5-16.5-16.5h-9.943l0.856-0.853c8.179-8.187,8.155-16.65,6.696-22.31c-0.12-0.466-0.26-0.933-0.408-1.4
		c0.495,0.026,0.99,0.038,1.485,0.038c7.318,0,14.49-2.807,20.146-8.462c4.894-4.895,7.958-11.102,8.861-17.95
		C412.147,37.289,410.424,31.62,406.679,27.348z M179.416,88.428c0-3.808,1.224-7.412,3.546-10.433
		c1.354-1.767,3.175-2.138,4.14-2.202c0.995-0.07,2.905,0.069,4.549,1.709c2.733,2.729,7.162,2.728,9.896-0.004
		c1.635-1.635,3.544-1.767,4.531-1.705c0.968,0.063,2.795,0.435,4.153,2.203c2.313,3.017,3.535,6.624,3.535,10.432
		c0,1.941-0.321,3.749-0.95,5.41h-32.449C179.737,92.177,179.416,90.369,179.416,88.428z M91.616,70.838
		c18.007,0,34.676,8.758,44.988,23H46.628C56.939,79.595,73.608,70.838,91.616,70.838z M50.369,389.838l-0.544-8h300.563l-0.544,8
		H50.369z M351.34,367.838H48.872l-16.4-241H367.74L351.34,367.838z M386.215,110.338c0,1.379-1.121,2.5-2.5,2.5H16.5
		c-1.379,0-2.5-1.121-2.5-2.5s1.121-2.5,2.5-2.5h367.215C385.094,107.838,386.215,108.959,386.215,110.338z M258.41,93.838
		c0.455-0.495,0.921-0.986,1.406-1.471c8.046-8.047,18.717-12.94,30.045-13.778c18.001-1.33,35.085-9.24,48.104-22.271
		c2.993-2.994,5.246-3.341,6.681-3.341c2.669,0,7.375,1.524,14.64,8.79c13.377,13.376,8.212,18.546,5.451,21.31l-2.111,2.101
		c-2.704,2.705-5.203,5.607-7.46,8.66H258.41z M397.527,41.072c-0.496,3.768-2.184,7.184-4.881,9.88
		c-7.404,7.402-17.068,4.479-22.916-1.368c-3.445-3.445-5.479-7.66-5.726-11.866c-0.241-4.136,1.266-7.957,4.358-11.05
		c2.695-2.696,6.111-4.384,9.879-4.88c0.265-0.035,0.521-0.052,0.767-0.052c1.807,0,3.087,0.864,3.729,1.427
		c0.747,0.655,2.001,2.101,2.001,4.414c0,3.866,3.134,7,7,7c2.313,0,3.759,1.254,4.414,2.002
		C396.791,37.307,397.819,38.86,397.527,41.072z"/>
	<path d="M134.345,315.387c17.565,17.564,40.92,27.238,65.761,27.238c24.842,0,48.196-9.674,65.762-27.239
		c36.26-36.261,36.26-95.262,0-131.522c-17.565-17.564-40.92-27.238-65.762-27.238c-24.841,0-48.195,9.674-65.761,27.238
		C98.085,220.124,98.085,279.125,134.345,315.387z M144.245,193.763c14.921-14.922,34.759-23.139,55.86-23.139
		c21.103,0,40.94,8.217,55.861,23.139c30.803,30.802,30.803,80.921,0,111.723c-14.921,14.922-34.759,23.139-55.861,23.139
		c-21.102,0-40.939-8.217-55.86-23.138C113.442,274.684,113.442,224.565,144.245,193.763z"/>
	<path d="M155.155,298.292c8.42,8.644,18.583,13.44,28.616,13.506c0.069,0,0.139,0,0.208,0c8.496,0,16.382-3.396,22.818-9.832
		c6.19-6.191,10.124-14.386,11.075-23.075c0.826-7.543,4.243-14.66,9.62-20.036l1.219-1.219c3.578-3.579,5.345-7.879,5.156-12.37
		c3.808-0.709,7.335-2.563,10.219-5.447c3.3-3.301,5.366-7.486,5.977-12.108c0.539-4.096-0.718-8.23-3.449-11.345
		c-1.417-1.616-3.159-2.877-5.086-3.719c-0.842-1.927-2.103-3.669-3.719-5.086c-3.112-2.73-7.242-3.987-11.347-3.448
		c-4.621,0.609-8.807,2.677-12.104,5.976c-3.136,3.136-5.05,7.032-5.601,11.223c-4.07,0.136-7.944,1.889-11.213,5.159
		c-5.685,5.686-13.106,9.133-20.897,9.707c-9.218,0.681-17.896,4.658-24.437,11.2C138.074,261.512,139.258,281.973,155.155,298.292z
		 M224.259,219.986c1.102-1.102,2.497-1.792,4.034-1.994c0.014-0.002,0.032-0.005,0.055-0.005c0.057,0,0.137,0.017,0.231,0.099
		c0.159,0.14,0.159,0.299,0.159,0.351c0,3.866,3.134,7,7,7c0.052,0,0.211,0,0.351,0.159c0.114,0.131,0.101,0.236,0.095,0.284
		c-0.203,1.539-0.894,2.936-1.997,4.038c-1.2,1.201-2.602,1.762-4.159,1.672c-1.721-0.101-3.488-0.977-4.977-2.466
		c-1.489-1.488-2.365-3.256-2.466-4.977C222.494,222.588,223.057,221.188,224.259,219.986z M162.11,257.276
		c4.168-4.169,9.697-6.704,15.567-7.137c11.138-0.821,21.709-5.712,29.768-13.77c0-0.001,0-0.001,0-0.001
		c0.876-0.876,1.409-1.084,1.829-1.084c0.191,0,0.359,0.044,0.526,0.087c0.854,0.221,2.752,1.054,5.854,4.155
		c3.101,3.101,3.935,4.998,4.154,5.854c0.138,0.53,0.279,1.08-0.994,2.354l-1.22,1.218c-7.624,7.624-12.467,17.716-13.638,28.414
		c-0.615,5.614-3.057,10.696-7.06,14.699c-3.804,3.805-8.149,5.733-12.919,5.732c-0.038,0-0.077,0-0.116,0
		c-6.259-0.041-12.893-3.335-18.68-9.275C156.996,280.118,151.889,267.497,162.11,257.276z"/>
</g>
<g>
</g>
<g>
</g>
<g>
</g>
<g>
</g>
<g>
</g>
<g>
</g>
<g>
</g>
<g>
</g>
<g>
</g>
<g>
</g>
<g>
</g>
<g>
</g>
<g>
</g>
<g>
</g>
<g>
</g>
</svg>
